<?xml version="1.0" encoding="utf-8"?>
<!-- Uploaded to SVGRepo https://www.svgrepo.com -->
<svg version="1.1" id="Layer_1" xmlns="http://www.w3.org/2000/svg" xmlns:xlink="http://www.w3.org/1999/xlink" x="0px" y="0px"
	 width="246px" height="256px" viewBox="0 0 246 256" enable-background="new 0 0 246 256" xml:space="preserve">
<path d="M243.444,111.722l-18.877,20.206l-18.347-16.838v40.481c-3.507-1.269-7.305-1.989-11.272-1.989
	c-5.046,0-9.813,1.159-14.04,3.138c-4.057,1.789-8.504,2.868-13.281,2.918c-4.717-0.05-9.233-1.189-13.3-2.918
	c-4.227-1.979-8.994-3.138-13.97-3.138c-0.11,0-0.23,0.01-0.34,0.01c-0.11,0-0.22-0.01-0.34-0.01c-4.966,0-9.473,1.089-13.69,3.138
	c-4.137,1.829-9.014,2.918-13.36,2.928c-4.817-0.01-9.423-1.169-13.56-2.928c-4.227-1.979-9.004-3.138-14.04-3.138
	c-5.046,0-9.813,1.159-14.04,3.138c-4.157,1.839-8.724,2.928-13.63,2.928c-4.837,0-9.473-1.159-13.63-2.928
	c-1.399-0.66-2.868-1.229-4.387-1.689V114.05l-18.647,16.838L2.306,110.163L123.25,1.91l36.004,32.886V7.086h30.978v56.2
	L243.444,111.722z M222.477,202.052c-4.906,0-9.54-1.09-13.629-2.93c-4.361-1.976-9.131-3.135-14.038-3.135
	c-5.043,0-9.813,1.158-14.038,3.135c-4.063,1.732-8.582,2.87-13.302,2.921c-4.773-0.051-9.222-1.125-13.279-2.921
	c-4.293-1.976-9.063-3.135-13.97-3.135c-0.115,0-0.228,0.009-0.342,0.01c-0.112-0.001-0.223-0.01-0.335-0.01
	c-4.974,0-9.608,1.158-13.833,3.135c-4.118,1.755-8.97,2.905-13.301,2.926c-4.852-0.021-9.436-1.105-13.485-2.926
	c-4.361-1.976-9.131-3.135-14.038-3.135c-5.043,0-9.813,1.158-14.038,3.135c-4.157,1.772-8.791,2.93-13.629,2.93
	c-4.906,0-9.472-1.09-13.629-2.93c-4.157-1.976-9.063-3.135-13.97-3.135c-4.974,0-9.608,1.158-13.833,3.135
	c-4.157,1.772-9.063,2.93-13.424,2.93v20.375c4.361,0,9.268-1.09,13.424-2.93c4.293-1.976,9.063-3.135,13.97-3.135
	c5.043,0,9.745,1.158,13.97,3.135c4.157,1.908,8.791,2.93,13.629,2.93c4.906,0,9.472-1.09,13.629-2.93
	c4.225-1.976,8.995-3.135,14.038-3.135s9.813,1.158,14.038,3.135c4.04,1.855,8.533,2.864,13.224,2.92v0.011
	c0.062,0,0.126-0.005,0.188-0.006c0.073,0,0.144,0.006,0.217,0.006c4.906,0,9.54-1.09,13.629-2.93
	c4.13-1.932,8.782-3.074,13.699-3.125c4.914,0.051,9.502,1.193,13.631,3.125c4.157,1.908,8.791,2.93,13.629,2.93
	c0.111,0,0.22-0.008,0.331-0.009c0.116,0.001,0.23,0.009,0.346,0.009l0-0.019c4.649-0.096,8.988-1.157,12.952-2.911
	c4.225-1.976,8.995-3.135,14.038-3.135s9.813,1.158,14.038,3.135c4.157,1.908,8.791,2.93,13.629,2.93c4.906,0,9.54-1.09,13.629-2.93
	c2.331-1.091,4.833-1.921,7.451-2.456v-20.402c-2.667,0.534-5.216,1.374-7.588,2.483
	C231.949,200.894,227.316,202.052,222.477,202.052z M236.243,167.707c-4.089,1.84-8.723,2.93-13.629,2.93
	c-4.838,0-9.472-1.158-13.629-2.93c-4.225-1.976-8.995-3.135-14.038-3.135s-9.813,1.158-14.038,3.135
	c-4.057,1.796-8.506,2.87-13.278,2.921c-4.72-0.051-9.24-1.189-13.303-2.921c-4.225-1.976-8.995-3.135-13.97-3.135
	c-0.114,0-0.227,0.009-0.341,0.01c-0.113-0.001-0.224-0.01-0.337-0.01c-4.974,0-9.472,1.09-13.697,3.135
	c-4.136,1.831-9.013,2.917-13.358,2.928c-4.814-0.011-9.425-1.165-13.563-2.928c-4.225-1.976-8.995-3.135-14.038-3.135
	s-9.813,1.158-14.038,3.135c-4.157,1.84-8.722,2.93-13.629,2.93c-4.838,0-9.472-1.158-13.629-2.93
	c-4.225-1.976-8.995-3.135-13.97-3.135c-4.974,0-9.472,1.09-13.697,3.135c-4.157,1.84-9.063,2.93-13.424,2.93v20.375
	c4.361,0,9.268-1.022,13.424-2.93c4.225-1.976,8.927-3.135,13.97-3.135c4.906,0,9.676,1.158,13.97,3.135
	c4.157,1.84,8.723,2.93,13.629,2.93c4.838,0,9.472-1.022,13.629-2.93c4.225-1.976,8.995-3.135,14.038-3.135
	c4.906,0,9.676,1.158,14.038,3.135c3.975,1.789,8.469,2.861,13.224,2.919v0.011c0.065,0,0.132-0.005,0.197-0.006
	c0.069,0,0.138,0.006,0.207,0.006c4.906,0,9.472-1.022,13.629-2.93c4.128-1.931,8.779-3.073,13.694-3.125
	c4.789,0.051,9.441,1.193,13.636,3.125c4.157,1.84,8.723,2.93,13.629,2.93c0.116,0,0.23-0.008,0.345-0.009
	c0.111,0.001,0.22,0.009,0.332,0.009l0-0.018c4.593-0.091,8.99-1.094,12.952-2.912c4.225-1.976,8.995-3.135,14.038-3.135
	c4.906,0,9.676,1.158,14.038,3.135c4.088,1.84,8.722,2.93,13.629,2.93c4.906,0,9.472-1.022,13.629-2.93
	c2.251-1.053,4.66-1.864,7.179-2.401v-20.43C241.076,165.787,238.574,166.617,236.243,167.707z M222.614,233.535
	c-4.838,0-9.472-1.158-13.629-2.93c-4.225-1.976-8.995-3.135-14.038-3.135s-9.813,1.158-14.038,3.135
	c-4.057,1.796-8.506,2.87-13.279,2.921c-4.719-0.051-9.239-1.189-13.302-2.921c-4.225-1.976-8.995-3.135-13.97-3.135
	c-0.114,0-0.227,0.009-0.341,0.01c-0.113-0.001-0.224-0.01-0.337-0.01c-4.974,0-9.608,1.158-13.833,3.135
	c-4.115,1.821-8.964,2.905-13.292,2.926c-4.789-0.022-9.375-1.171-13.493-2.926c-4.225-1.976-8.995-3.135-14.038-3.135
	s-9.813,1.158-14.038,3.135c-4.157,1.84-8.722,2.93-13.629,2.93c-4.838,0-9.472-1.158-13.629-2.93
	c-4.225-1.976-8.995-3.135-13.97-3.135c-4.974,0-9.608,1.158-13.833,3.135c-4.157,1.84-9.063,2.93-13.424,2.93v20.375
	c4.361,0,9.268-1.022,13.424-2.93c4.225-1.976,8.927-3.135,13.97-3.135c4.906,0,9.676,1.158,13.97,3.135
	c4.157,1.84,8.722,2.93,13.629,2.93c4.838,0,9.472-1.022,13.629-2.93c4.225-1.976,8.995-3.135,14.038-3.135
	c4.906,0,9.676,1.158,14.038,3.135c3.975,1.789,8.469,2.861,13.224,2.919v0.011c0.065,0,0.133-0.005,0.198-0.006
	c0.069,0,0.137,0.006,0.206,0.006c4.907,0,9.472-1.022,13.629-2.93c4.129-1.931,8.78-3.073,13.695-3.125
	c4.788,0.051,9.44,1.194,13.635,3.125c4.157,1.84,8.722,2.93,13.629,2.93c0.116,0,0.231-0.008,0.346-0.009
	c0.111,0.001,0.22,0.009,0.331,0.009v-0.018c4.592-0.091,8.99-1.094,12.952-2.912c4.225-1.976,8.995-3.135,14.038-3.135
	c4.906,0,9.676,1.158,14.038,3.135c4.089,1.84,8.723,2.93,13.629,2.93c4.907,0,9.472-1.022,13.629-2.93
	c2.291-1.072,4.747-1.892,7.315-2.429v-20.402c-2.618,0.535-5.12,1.365-7.451,2.456C232.154,232.444,227.52,233.535,222.614,233.535
	z"/>
</svg>
