<svg class="mr-1" xmlns="http://www.w3.org/2000/svg" x="0px" y="0px" width="20" height="20" viewBox="0 0 172 172"
style=" fill:#fff;">
<path
  d="M150.67469,60.2c-3.44,-1.37062 -7.56531,0.34938 -8.94937,3.78938c-3.44,8.25062 -19.60531,22.36 -59.85063,22.36c-10.66937,0 -19.95469,-1.38406 -28.55469,-3.78938c2.06938,0 4.12531,0 6.19469,0c9.97063,0 20.64,-1.03469 30.96,-3.44c29.24,-6.19469 53.65594,-19.60531 63.29063,-35.08531c4.12531,-6.54406 5.50937,-13.07469 3.78937,-19.26937c-3.78937,-15.13063 -24.08,-24.76531 -52.98406,-24.76531c-9.62125,0 -19.60531,1.03469 -29.57594,3.09063c-39.56,8.26406 -68.11469,30.27469 -68.11469,52.63469c0,0.34937 0,0.34937 0,0.68531c0.34938,15.48 13.41063,28.90406 33.36531,36.81875c1.72,2.05594 3.78937,4.46125 5.16,5.84531c4.12531,4.12531 8.6,7.56531 13.42406,10.65594c-1.38406,1.72 -1.72,4.47469 -1.03469,6.54406c2.40531,5.84531 5.49594,11.00531 9.63469,15.13063c-1.03469,0 -2.06938,0 -3.10406,0.68531c-3.44,1.38406 -5.16,5.50937 -3.44,8.94937c0.34937,0.68531 7.91469,17.54938 26.83469,17.54938c3.78938,0 6.88,-3.10406 6.88,-6.88c0,-3.78938 -3.09062,-6.88 -6.88,-6.88c-7.22937,0 -11.35469,-4.82406 -13.07469,-7.57875c6.88,4.47469 15.48,6.88 25.11469,6.88c7.91469,0 15.82938,-1.72 23.73063,-5.84531c3.44,-1.72 4.82406,-5.84531 3.10406,-9.28531c-1.72,-3.44 -5.84531,-4.81062 -9.28531,-3.09062c-6.19469,3.09062 -11.70406,4.46125 -17.89875,4.46125c-11.69063,0 -20.29063,-4.46125 -25.8,-13.06125c7.91469,3.09062 16.17875,4.46125 24.77875,4.46125c18.22125,0 31.98125,-4.46125 40.93062,-13.76c2.75469,-2.74125 2.75469,-7.21594 0,-9.62125c-2.75469,-2.75469 -7.22937,-2.75469 -9.63469,0c-6.19469,6.53062 -16.85063,9.62125 -31.29594,9.62125c-10.66938,0 -20.64,-2.74125 -29.93875,-8.25063c4.13875,0.34938 8.6,0.68531 13.07469,0.68531c44.38406,0 66.74406,-16.16531 72.58937,-31.29594c1.72,-3.44 0,-7.22938 -3.44,-8.94938zM20.64,55.72531c0,-11.00531 17.88531,-30.96 57.10938,-39.21063c9.28531,-1.72 18.22125,-2.75469 26.82125,-2.75469c23.74406,0 37.84,7.56531 39.56,14.79469c0.69875,3.09063 -0.68531,6.19469 -2.05594,8.6c-6.54406,10.32 -25.8,23.04531 -54.35469,28.89063c-9.63469,2.06937 -18.92,3.10406 -28.20531,3.10406c-25.11469,0.33594 -38.87469,-7.57875 -38.87469,-13.42406zM82.90938,36.46938c-17.54938,3.77594 -32.68,11.69062 -39.56,20.64c-1.38406,1.72 -3.44,2.74125 -5.50938,2.74125c-1.37062,0 -3.09062,-0.33594 -4.12531,-1.37063c-3.10406,-2.40531 -3.44,-6.53062 -1.03469,-9.63469c9.28531,-11.69063 26.83469,-21.32531 47.81063,-25.8c16.51469,-3.44 31.99469,-3.09063 46.10406,0.34937c3.77594,1.03469 5.84531,4.81063 5.16,8.25063c-1.03469,3.78937 -4.82406,5.84531 -8.26406,5.16c-12.72531,-3.44 -25.8,-3.44 -40.58125,-0.33594zM67.76531,155.48531c2.75469,2.75469 2.75469,6.88 0,9.63469c-4.47469,4.47469 -9.28531,6.53063 -15.81594,6.53063c-3.78938,0 -6.88,-3.09063 -6.88,-6.88c0,-3.77594 3.09062,-6.88 6.88,-6.88c2.74125,0 4.12531,-0.68531 5.84531,-2.40531c2.75469,-2.40531 7.21594,-2.75469 9.97063,0z">
</path>
</svg>